<svg width="79" height="20" viewBox="0 0 79 20" fill="none" xmlns="http://www.w3.org/2000/svg">
<line y1="-0.25" x2="79.0011" y2="-0.25" transform="matrix(0.999986 -0.00538314 0.00498698 0.999988 0 10.3059)" stroke="black" stroke-width="0.5"/>
<path d="M11.2567 10.0934C21.8452 -2.17315 29.009 -2.23143 39.7051 9.88085" stroke="#800080" stroke-width="0.5"/>
<path d="M68.1533 9.88079C57.5038 22.0902 50.3398 22.1099 39.7042 9.94025" stroke="black" stroke-width="0.5"/>
<path d="M25.5547 2.47436C25.4571 2.37673 25.2988 2.37673 25.2012 2.47436L23.6102 4.06535C23.5125 4.16298 23.5125 4.32127 23.6102 4.4189C23.7078 4.51653 23.8661 4.51653 23.9637 4.4189L25.3779 3.00469L26.7921 4.4189C26.8898 4.51653 27.0481 4.51653 27.1457 4.4189C27.2433 4.32127 27.2433 4.16298 27.1457 4.06535L25.5547 2.47436ZM25.3779 8.60498L25.6279 8.60498L25.6279 2.65113L25.3779 2.65113L25.1279 2.65113L25.1279 8.60498L25.3779 8.60498Z" fill="#800080"/>
<path d="M53.8584 17.7127C53.956 17.8103 54.1143 17.8103 54.2119 17.7127L55.8029 16.1217C55.9006 16.024 55.9006 15.8657 55.8029 15.7681C55.7053 15.6705 55.547 15.6705 55.4494 15.7681L54.0352 17.1823L52.6209 15.7681C52.5233 15.6705 52.365 15.6705 52.2674 15.7681C52.1698 15.8657 52.1698 16.024 52.2674 16.1217L53.8584 17.7127ZM54.0352 11.582L53.7852 11.582L53.7852 17.5359L54.0352 17.5359L54.2852 17.5359L54.2852 11.582L54.0352 11.582Z" fill="black"/>
<line y1="-0.25" x2="79.0011" y2="-0.25" transform="matrix(0.999986 -0.00538314 0.00498698 0.999988 0 10.3059)" stroke="black" stroke-width="0.5"/>
</svg>
