<svg width="82" height="39" viewBox="0 0 82 39" fill="none" xmlns="http://www.w3.org/2000/svg">
<path fill-rule="evenodd" clip-rule="evenodd" d="M0 0C5.41713 0 10.8343 0 16.2514 0C16.2514 5.41713 16.2514 10.8343 16.2514 16.2514C10.8343 16.2514 5.41713 16.2514 0 16.2514C0 10.8343 0 5.41713 0 0Z" fill="black"/>
<path fill-rule="evenodd" clip-rule="evenodd" d="M21.9707 0C27.3878 0 32.805 0 38.2221 0C38.2221 5.41713 38.2221 10.8343 38.2221 16.2514C32.805 16.2514 27.3878 16.2514 21.9707 16.2514C21.9707 10.8343 21.9707 5.41713 21.9707 0Z" fill="black"/>
<path fill-rule="evenodd" clip-rule="evenodd" d="M43.6387 0C49.0558 0 54.4729 0 59.8901 0C59.8901 5.41713 59.8901 10.8343 59.8901 16.2514C54.4729 16.2514 49.0558 16.2514 43.6387 16.2514C43.6387 10.8343 43.6387 5.41713 43.6387 0Z" fill="black"/>
<path fill-rule="evenodd" clip-rule="evenodd" d="M21.9707 21.9695C27.3878 21.9695 32.805 21.9695 38.2221 21.9695C38.2221 27.3866 38.2221 32.8037 38.2221 38.2209C32.805 38.2209 27.3878 38.2209 21.9707 38.2209C21.9707 32.8037 21.9707 27.3866 21.9707 21.9695Z" fill="black"/>
<path fill-rule="evenodd" clip-rule="evenodd" d="M43.9395 21.9695C49.3566 21.9695 54.7737 21.9695 60.1908 21.9695C60.1908 27.3866 60.1908 32.8037 60.1908 38.2209C54.7737 38.2209 49.3566 38.2209 43.9395 38.2209C43.9395 32.8037 43.9395 27.3866 43.9395 21.9695Z" fill="black"/>
<path fill-rule="evenodd" clip-rule="evenodd" d="M65.6074 21.9695C71.0245 21.9695 76.4417 21.9695 81.8588 21.9695C81.8588 27.3866 81.8588 32.8037 81.8588 38.2209C76.4417 38.2209 71.0245 38.2209 65.6074 38.2209C65.6074 32.8037 65.6074 27.3866 65.6074 21.9695Z" fill="black"/>
</svg>
