<?xml version="1.0" standalone="no"?><!DOCTYPE svg PUBLIC "-//W3C//DTD SVG 1.1//EN" "http://www.w3.org/Graphics/SVG/1.1/DTD/svg11.dtd"><svg width="341.3333333333333" height="341.3333333333333" id="Dance Music of Ireland" version="1.1" xmlns="http://www.w3.org/2000/svg" xmlns:xlink="http://www.w3.org/1999/xlink"><defs xmlns="http://www.w3.org/1999/xhtml"><style type="text/css"><![CDATA[
.jost-regular { font-family: "Jost", sans-serif; font-optical-sizing: auto; font-weight: 600; font-style: normal; }
.x-axis { stroke-opacity: 0.2; }]]></style></defs><g id="center" transform="translate(170.66666666666666, 170.66666666666666)"><g class="segment" id="Doyle´s Frolic" transform="translate(0, 0) rotate(-90)"><path fill="lightgray" class="donut" opacity="0" d="M138.072,-100.315A170.667,170.667,0,0,1,138.072,100.315L0,0Z"/><g class="x-axis" id="note-names-x-axis" fill="none" font-size="10" font-family="sans-serif" text-anchor="middle" opacity="0"><path class="domain" stroke="currentColor" d="M0,6V0H170.66666666666666V6"/></g><g id="links" class="links"><path d="M 95.4920634920635 0 A 4.0634920634920775 , -8.126984126984155 0 0 , 1 91.42857142857142 , 0" style="fill: none;" stroke="rgb(114, 120, 237)" stroke-width="0.05rem" stroke-opacity="0.25"/><path d="M 91.42857142857142 0 C 91.42857142857142 0 91.42857142857142 0 91.42857142857142 0" style="fill: none;" stroke="rgb(117, 117, 237)" stroke-width="0.05rem" stroke-opacity="0.25"/><path d="M 91.42857142857142 0 A 6.095238095238102 , 12.190476190476204 0 0 , 1 97.52380952380952 , 0" style="fill: none;" stroke="rgb(113, 121, 237)" stroke-width="0.05rem" stroke-opacity="0.1"/><path d="M 97.52380952380952 0 A 2.0317460317460245 , -4.063492063492049 0 0 , 1 95.4920634920635 , 0" style="fill: none;" stroke="rgb(110, 124, 236)" stroke-width="0.05rem" stroke-opacity="0.25"/><path d="M 95.4920634920635 0 A 16.253968253968253 , 32.507936507936506 0 0 , 1 111.74603174603175 , 0" style="fill: none;" stroke="rgb(99, 133, 235)" stroke-width="0.05rem" stroke-opacity="0.1"/><path d="M 111.74603174603175 0 C 111.74603174603175 0 111.74603174603175 0 111.74603174603175 0" style="fill: none;" stroke="rgb(87, 143, 233)" stroke-width="0.05rem" stroke-opacity="1"/><path d="M 111.74603174603175 0 A 10.158730158730165 , -20.31746031746033 0 0 , 1 101.58730158730158 , 0" style="fill: none;" stroke="rgb(95, 137, 234)" stroke-width="0.05rem" stroke-opacity="0.25"/><path d="M 101.58730158730158 0 A 10.158730158730165 , 20.31746031746033 0 0 , 1 111.74603174603175 , 0" style="fill: none;" stroke="rgb(95, 137, 234)" stroke-width="0.05rem" stroke-opacity="0.25"/><path d="M 111.74603174603175 0 A 6.095238095238102 , -12.190476190476204 0 0 , 1 105.65079365079364 , 0" style="fill: none;" stroke="rgb(92, 139, 234)" stroke-width="0.05rem" stroke-opacity="0.25"/><path d="M 105.65079365079364 0 A 6.095238095238102 , 12.190476190476204 0 0 , 1 111.74603174603175 , 0" style="fill: none;" stroke="rgb(92, 139, 234)" stroke-width="0.05rem" stroke-opacity="0.1"/><path d="M 105.65079365079364 0 A 8.126984126984127 , -16.253968253968253 0 0 , 1 97.52380952380952 , 0" style="fill: none;" stroke="rgb(102, 130, 235)" stroke-width="0.05rem" stroke-opacity="0.1"/><path d="M 97.52380952380952 0 A 12.190476190476204 , 24.380952380952408 0 0 , 1 109.71428571428572 , 0" style="fill: none;" stroke="rgb(99, 133, 235)" stroke-width="0.05rem" stroke-opacity="0.1"/><path d="M 109.71428571428572 0 A 8.12698412698414 , -16.25396825396828 0 0 , 1 101.58730158730158 , 0" style="fill: none;" stroke="rgb(96, 136, 235)" stroke-width="0.05rem" stroke-opacity="0.25"/><path d="M 101.58730158730158 0 A 4.063492063492063 , -8.126984126984127 0 0 , 1 97.52380952380952 , 0" style="fill: none;" stroke="rgb(105, 128, 236)" stroke-width="0.05rem" stroke-opacity="0.25"/><path d="M 95.4920634920635 0 C 95.4920634920635 0 95.4920634920635 0 95.4920634920635 0" style="fill: none;" stroke="rgb(111, 123, 237)" stroke-width="0.05rem" stroke-opacity="0.1"/><path d="M 91.42857142857142 0 A 20.31746031746033 , 40.63492063492066 0 0 , 1 111.74603174603175 , 0" style="fill: none;" stroke="rgb(102, 130, 235)" stroke-width="0.05rem" stroke-opacity="0.1"/><path d="M 97.52380952380952 0 A 44.698412698412696 , -89.39682539682539 0 0 , 1 52.82539682539682 , 0" style="fill: none;" stroke="rgb(141, 96, 240)" stroke-width="0.05rem" stroke-opacity="0.25"/><path d="M 52.82539682539682 0 A 56.8888888888889 , 113.7777777777778 0 0 , 1 109.71428571428572 , 0" style="fill: none;" stroke="rgb(132, 104, 239)" stroke-width="0.05rem" stroke-opacity="0.1"/><path d="M 101.58730158730158 0 A 10.158730158730165 , -20.31746031746033 0 0 , 1 91.42857142857142 , 0" style="fill: none;" stroke="rgb(110, 124, 236)" stroke-width="0.05rem" stroke-opacity="0.25"/><path d="M 91.42857142857142 0 A 4.063492063492063 , -8.126984126984127 0 0 , 1 87.36507936507935 , 0" style="fill: none;" stroke="rgb(120, 115, 238)" stroke-width="0.05rem" stroke-opacity="0.1"/><path d="M 87.36507936507935 0 A 8.12698412698414 , 16.25396825396828 0 0 , 1 95.4920634920635 , 0" style="fill: none;" stroke="rgb(117, 117, 237)" stroke-width="0.05rem" stroke-opacity="0.25"/><path d="M 95.4920634920635 0 A 8.12698412698414 , -16.25396825396828 0 0 , 1 87.36507936507935 , 0" style="fill: none;" stroke="rgb(117, 117, 237)" stroke-width="0.05rem" stroke-opacity="0.1"/><path d="M 87.36507936507935 0 A 48.76190476190475 , -97.5238095238095 0 0 , 1 38.6031746031746 , 0" style="fill: none;" stroke="rgb(159, 81, 243)" stroke-width="0.05rem" stroke-opacity="0.1"/><path d="M 38.6031746031746 0 A 62.98412698412698 , 125.96825396825396 0 0 , 1 101.58730158730158 , 0" style="fill: none;" stroke="rgb(149, 90, 241)" stroke-width="0.05rem" stroke-opacity="0.1"/><path d="M 111.74603174603175 0 A 4.063492063492063 , 8.126984126984127 0 0 , 1 115.80952380952381 , 0" style="fill: none;" stroke="rgb(84, 146, 233)" stroke-width="0.05rem" stroke-opacity="0.25"/><path d="M 115.80952380952381 0 C 115.80952380952381 0 115.80952380952381 0 115.80952380952381 0" style="fill: none;" stroke="rgb(81, 149, 233)" stroke-width="0.05rem" stroke-opacity="0.1"/><path d="M 115.80952380952381 0 A 4.063492063492049 , 8.126984126984098 0 0 , 1 119.87301587301586 , 0" style="fill: none;" stroke="rgb(78, 151, 232)" stroke-width="0.05rem" stroke-opacity="0.1"/><path d="M 119.87301587301586 0 A 8.126984126984112 , -16.253968253968225 0 0 , 1 111.74603174603175 , 0" style="fill: none;" stroke="rgb(81, 149, 233)" stroke-width="0.05rem" stroke-opacity="0.1"/><path d="M 111.74603174603175 0 A 54.85714285714286 , -109.71428571428572 0 0 , 1 56.888888888888886 , 0" style="fill: none;" stroke="rgb(128, 108, 239)" stroke-width="0.05rem" stroke-opacity="0.1"/><path d="M 56.888888888888886 0 A 52.82539682539684 , 105.65079365079367 0 0 , 1 109.71428571428572 , 0" style="fill: none;" stroke="rgb(129, 107, 239)" stroke-width="0.05rem" stroke-opacity="0.1"/><path d="M 109.71428571428572 0 A 2.0317460317460245 , 4.063492063492049 0 0 , 1 111.74603174603175 , 0" style="fill: none;" stroke="rgb(89, 142, 234)" stroke-width="0.05rem" stroke-opacity="0.25"/><path d="M 111.74603174603175 0 A 2.0317460317460245 , -4.063492063492049 0 0 , 1 109.71428571428572 , 0" style="fill: none;" stroke="rgb(89, 142, 234)" stroke-width="0.05rem" stroke-opacity="0.1"/><path d="M 109.71428571428572 0 A 56.8888888888889 , -113.7777777777778 0 0 , 1 52.82539682539682 , 0" style="fill: none;" stroke="rgb(132, 104, 239)" stroke-width="0.05rem" stroke-opacity="0.1"/><path d="M 52.82539682539682 0 A 48.76190476190476 , 97.52380952380952 0 0 , 1 101.58730158730158 , 0" style="fill: none;" stroke="rgb(138, 99, 240)" stroke-width="0.05rem" stroke-opacity="0.25"/><path d="M 101.58730158730158 0 C 101.58730158730158 0 101.58730158730158 0 101.58730158730158 0" style="fill: none;" stroke="rgb(102, 130, 235)" stroke-width="0.05rem" stroke-opacity="0.25"/><path d="M 101.58730158730158 0 A 8.12698412698414 , 16.25396825396828 0 0 , 1 109.71428571428572 , 0" style="fill: none;" stroke="rgb(96, 136, 235)" stroke-width="0.05rem" stroke-opacity="0.1"/><path d="M 115.80952380952381 0 A 4.063492063492063 , -8.126984126984127 0 0 , 1 111.74603174603175 , 0" style="fill: none;" stroke="rgb(84, 146, 233)" stroke-width="0.05rem" stroke-opacity="0.25"/><path d="M 111.74603174603175 0 A 8.126984126984112 , 16.253968253968225 0 0 , 1 119.87301587301586 , 0" style="fill: none;" stroke="rgb(81, 149, 233)" stroke-width="0.05rem" stroke-opacity="0.1"/><path d="M 119.87301587301586 0 A 4.063492063492049 , -8.126984126984098 0 0 , 1 115.80952380952381 , 0" style="fill: none;" stroke="rgb(78, 151, 232)" stroke-width="0.05rem" stroke-opacity="0.1"/><path d="M 111.74603174603175 0 A 14.222222222222229 , -28.444444444444457 0 0 , 1 97.52380952380952 , 0" style="fill: none;" stroke="rgb(98, 134, 235)" stroke-width="0.05rem" stroke-opacity="0.1"/><path d="M 91.42857142857142 0 A 18.285714285714306 , 36.57142857142861 0 0 , 1 109.71428571428572 , 0" style="fill: none;" stroke="rgb(104, 129, 236)" stroke-width="0.05rem" stroke-opacity="0.1"/><path d="M 109.71428571428572 0 A 71.11111111111111 , -142.22222222222223 0 0 , 1 38.6031746031746 , 0" style="fill: none;" stroke="rgb(143, 95, 241)" stroke-width="0.05rem" stroke-opacity="0.1"/><path d="M 38.6031746031746 0 A 48.76190476190475 , 97.5238095238095 0 0 , 1 87.36507936507935 , 0" style="fill: none;" stroke="rgb(159, 81, 243)" stroke-width="0.05rem" stroke-opacity="0.1"/><path d="M 87.36507936507935 0 C 87.36507936507935 0 87.36507936507935 0 87.36507936507935 0" style="fill: none;" stroke="rgb(123, 112, 238)" stroke-width="0.05rem" stroke-opacity="0.1"/></g><path d="M3.296,0A3.296,3.296,0,1,1,-3.296,0A3.296,3.296,0,1,1,3.296,0" fill="none" class="symbol" transform="translate(180.66666666666666, 0)"/></g><g class="segment" id="Moll in the wad" transform="translate(0, 0) rotate(-18)"><path fill="lightgray" class="donut" opacity="0" d="M138.072,-100.315A170.667,170.667,0,0,1,138.072,100.315L0,0Z"/><g class="x-axis" id="note-names-x-axis" fill="none" font-size="10" font-family="sans-serif" text-anchor="middle" opacity="0"><path class="domain" stroke="currentColor" d="M0,6V0H170.66666666666666V6"/></g><g id="links" class="links"><path d="M 97.52380952380952 0 A 2.0317460317460245 , -4.063492063492049 0 0 , 1 95.4920634920635 , 0" style="fill: none;" stroke="rgb(110, 124, 236)" stroke-width="0.05rem" stroke-opacity="1"/><path d="M 95.4920634920635 0 A 8.12698412698414 , -16.25396825396828 0 0 , 1 87.36507936507935 , 0" style="fill: none;" stroke="rgb(117, 117, 237)" stroke-width="0.05rem" stroke-opacity="1"/><path d="M 87.36507936507935 0 A 4.063492063492063 , 8.126984126984127 0 0 , 1 91.42857142857142 , 0" style="fill: none;" stroke="rgb(120, 115, 238)" stroke-width="0.05rem" stroke-opacity="0.28"/><path d="M 91.42857142857142 0 A 34.53968253968253 , -69.07936507936506 0 0 , 1 56.888888888888886 , 0" style="fill: none;" stroke="rgb(143, 95, 241)" stroke-width="0.05rem" stroke-opacity="0.28"/><path d="M 56.888888888888886 0 A 28.444444444444443 , 56.888888888888886 0 0 , 1 85.33333333333333 , 0" style="fill: none;" stroke="rgb(147, 91, 241)" stroke-width="0.05rem" stroke-opacity="0.28"/><path d="M 85.33333333333333 0 A 6.095238095238088 , 12.190476190476176 0 0 , 1 91.42857142857142 , 0" style="fill: none;" stroke="rgb(122, 113, 238)" stroke-width="0.05rem" stroke-opacity="0.1"/><path d="M 91.42857142857142 0 A 10.158730158730151 , -20.317460317460302 0 0 , 1 81.26984126984127 , 0" style="fill: none;" stroke="rgb(125, 111, 238)" stroke-width="0.05rem" stroke-opacity="0.28"/><path d="M 81.26984126984127 0 A 24.38095238095238 , -48.76190476190476 0 0 , 1 56.888888888888886 , 0" style="fill: none;" stroke="rgb(150, 89, 242)" stroke-width="0.05rem" stroke-opacity="0.1"/><path d="M 56.888888888888886 0 A 30.476190476190467 , 60.952380952380935 0 0 , 1 87.36507936507935 , 0" style="fill: none;" stroke="rgb(146, 93, 241)" stroke-width="0.05rem" stroke-opacity="0.1"/><path d="M 87.36507936507935 0 A 2.0317460317460245 , -4.063492063492049 0 0 , 1 85.33333333333333 , 0" style="fill: none;" stroke="rgb(125, 111, 238)" stroke-width="0.05rem" stroke-opacity="0.1"/><path d="M 85.33333333333333 0 A 10.158730158730165 , 20.31746031746033 0 0 , 1 95.4920634920635 , 0" style="fill: none;" stroke="rgb(119, 116, 238)" stroke-width="0.05rem" stroke-opacity="0.1"/><path d="M 95.4920634920635 0 A 4.0634920634920775 , -8.126984126984155 0 0 , 1 91.42857142857142 , 0" style="fill: none;" stroke="rgb(114, 120, 237)" stroke-width="0.05rem" stroke-opacity="0.64"/><path d="M 91.42857142857142 0 A 4.0634920634920775 , 8.126984126984155 0 0 , 1 95.4920634920635 , 0" style="fill: none;" stroke="rgb(114, 120, 237)" stroke-width="0.05rem" stroke-opacity="0.28"/><path d="M 87.36507936507935 0 C 87.36507936507935 0 87.36507936507935 0 87.36507936507935 0" style="fill: none;" stroke="rgb(123, 112, 238)" stroke-width="0.05rem" stroke-opacity="0.1"/><path d="M 87.36507936507935 0 A 30.476190476190467 , -60.952380952380935 0 0 , 1 56.888888888888886 , 0" style="fill: none;" stroke="rgb(146, 93, 241)" stroke-width="0.05rem" stroke-opacity="0.28"/><path d="M 56.888888888888886 0 A 20.317460317460316 , 40.63492063492063 0 0 , 1 77.2063492063492 , 0" style="fill: none;" stroke="rgb(153, 86, 242)" stroke-width="0.05rem" stroke-opacity="0.1"/><path d="M 77.2063492063492 0 A 20.317460317460316 , 40.63492063492063 0 0 , 1 97.52380952380952 , 0" style="fill: none;" stroke="rgb(123, 112, 238)" stroke-width="0.05rem" stroke-opacity="0.1"/><path d="M 97.52380952380952 0 A 20.317460317460316 , -40.63492063492063 0 0 , 1 77.2063492063492 , 0" style="fill: none;" stroke="rgb(123, 112, 238)" stroke-width="0.05rem" stroke-opacity="0.1"/><path d="M 77.2063492063492 0 A 14.222222222222214 , 28.44444444444443 0 0 , 1 91.42857142857142 , 0" style="fill: none;" stroke="rgb(128, 108, 239)" stroke-width="0.05rem" stroke-opacity="0.1"/><path d="M 91.42857142857142 0 A 6.095238095238088 , -12.190476190476176 0 0 , 1 85.33333333333333 , 0" style="fill: none;" stroke="rgb(122, 113, 238)" stroke-width="0.05rem" stroke-opacity="0.28"/><path d="M 85.33333333333333 0 A 32.507936507936506 , -65.01587301587301 0 0 , 1 52.82539682539682 , 0" style="fill: none;" stroke="rgb(150, 89, 242)" stroke-width="0.05rem" stroke-opacity="0.1"/><path d="M 52.82539682539682 0 A 4.063492063492063 , 8.126984126984127 0 0 , 1 56.888888888888886 , 0" style="fill: none;" stroke="rgb(171, 70, 244)" stroke-width="0.05rem" stroke-opacity="0.1"/><path d="M 85.33333333333333 0 A 2.0317460317460245 , 4.063492063492049 0 0 , 1 87.36507936507935 , 0" style="fill: none;" stroke="rgb(125, 111, 238)" stroke-width="0.05rem" stroke-opacity="0.28"/><path d="M 81.26984126984127 0 A 4.063492063492063 , 8.126984126984127 0 0 , 1 85.33333333333333 , 0" style="fill: none;" stroke="rgb(129, 107, 239)" stroke-width="0.05rem" stroke-opacity="0.1"/><path d="M 56.888888888888886 0 A 38.60317460317461 , 77.20634920634922 0 0 , 1 95.4920634920635 , 0" style="fill: none;" stroke="rgb(140, 98, 240)" stroke-width="0.05rem" stroke-opacity="0.28"/><path d="M 95.4920634920635 0 C 95.4920634920635 0 95.4920634920635 0 95.4920634920635 0" style="fill: none;" stroke="rgb(111, 123, 237)" stroke-width="0.05rem" stroke-opacity="0.46"/><path d="M 95.4920634920635 0 A 6.095238095238088 , 12.190476190476176 0 0 , 1 101.58730158730158 , 0" style="fill: none;" stroke="rgb(107, 126, 236)" stroke-width="0.05rem" stroke-opacity="1"/><path d="M 101.58730158730158 0 A 4.063492063492063 , -8.126984126984127 0 0 , 1 97.52380952380952 , 0" style="fill: none;" stroke="rgb(105, 128, 236)" stroke-width="0.05rem" stroke-opacity="0.8200000000000001"/><path d="M 97.52380952380952 0 A 6.095238095238102 , -12.190476190476204 0 0 , 1 91.42857142857142 , 0" style="fill: none;" stroke="rgb(113, 121, 237)" stroke-width="0.05rem" stroke-opacity="0.1"/><path d="M 91.42857142857142 0 A 14.222222222222214 , -28.44444444444443 0 0 , 1 77.2063492063492 , 0" style="fill: none;" stroke="rgb(128, 108, 239)" stroke-width="0.05rem" stroke-opacity="0.1"/><path d="M 77.2063492063492 0 A 8.126984126984127 , 16.253968253968253 0 0 , 1 85.33333333333333 , 0" style="fill: none;" stroke="rgb(132, 104, 239)" stroke-width="0.05rem" stroke-opacity="0.1"/><path d="M 85.33333333333333 0 A 8.126984126984127 , -16.253968253968253 0 0 , 1 77.2063492063492 , 0" style="fill: none;" stroke="rgb(132, 104, 239)" stroke-width="0.05rem" stroke-opacity="0.28"/><path d="M 77.2063492063492 0 A 24.38095238095238 , -48.76190476190476 0 0 , 1 52.82539682539682 , 0" style="fill: none;" stroke="rgb(156, 83, 242)" stroke-width="0.05rem" stroke-opacity="0.1"/><path d="M 52.82539682539682 0 A 44.698412698412696 , 89.39682539682539 0 0 , 1 97.52380952380952 , 0" style="fill: none;" stroke="rgb(141, 96, 240)" stroke-width="0.05rem" stroke-opacity="0.1"/><path d="M 97.52380952380952 0 A 10.158730158730165 , -20.31746031746033 0 0 , 1 87.36507936507935 , 0" style="fill: none;" stroke="rgb(116, 119, 237)" stroke-width="0.05rem" stroke-opacity="0.1"/><path d="M 87.36507936507935 0 A 8.12698412698414 , 16.25396825396828 0 0 , 1 95.4920634920635 , 0" style="fill: none;" stroke="rgb(117, 117, 237)" stroke-width="0.05rem" stroke-opacity="0.46"/><path d="M 87.36507936507935 0 A 10.158730158730165 , 20.31746031746033 0 0 , 1 97.52380952380952 , 0" style="fill: none;" stroke="rgb(116, 119, 237)" stroke-width="0.05rem" stroke-opacity="0.1"/><path d="M 101.58730158730158 0 A 10.158730158730165 , -20.31746031746033 0 0 , 1 91.42857142857142 , 0" style="fill: none;" stroke="rgb(110, 124, 236)" stroke-width="0.05rem" stroke-opacity="0.1"/><path d="M 91.42857142857142 0 C 91.42857142857142 0 91.42857142857142 0 91.42857142857142 0" style="fill: none;" stroke="rgb(117, 117, 237)" stroke-width="0.05rem" stroke-opacity="0.1"/><path d="M 91.42857142857142 0 A 6.095238095238102 , 12.190476190476204 0 0 , 1 97.52380952380952 , 0" style="fill: none;" stroke="rgb(113, 121, 237)" stroke-width="0.05rem" stroke-opacity="0.1"/><path d="M 97.52380952380952 0 C 97.52380952380952 0 97.52380952380952 0 97.52380952380952 0" style="fill: none;" stroke="rgb(108, 125, 236)" stroke-width="0.05rem" stroke-opacity="0.1"/><path d="M 97.52380952380952 0 A 8.126984126984127 , 16.253968253968253 0 0 , 1 105.65079365079364 , 0" style="fill: none;" stroke="rgb(102, 130, 235)" stroke-width="0.05rem" stroke-opacity="0.1"/><path d="M 105.65079365079364 0 A 10.158730158730151 , -20.317460317460302 0 0 , 1 95.4920634920635 , 0" style="fill: none;" stroke="rgb(104, 129, 236)" stroke-width="0.05rem" stroke-opacity="0.1"/><path d="M 87.36507936507935 0 A 18.285714285714292 , 36.571428571428584 0 0 , 1 105.65079365079364 , 0" style="fill: none;" stroke="rgb(110, 124, 236)" stroke-width="0.05rem" stroke-opacity="0.1"/><path d="M 105.65079365079364 0 A 4.0634920634920775 , 8.126984126984155 0 0 , 1 109.71428571428572 , 0" style="fill: none;" stroke="rgb(93, 138, 234)" stroke-width="0.05rem" stroke-opacity="0.1"/><path d="M 109.71428571428572 0 A 14.222222222222229 , -28.444444444444457 0 0 , 1 95.4920634920635 , 0" style="fill: none;" stroke="rgb(101, 132, 235)" stroke-width="0.05rem" stroke-opacity="0.1"/><path d="M 101.58730158730158 0 A 8.12698412698414 , 16.25396825396828 0 0 , 1 109.71428571428572 , 0" style="fill: none;" stroke="rgb(96, 136, 235)" stroke-width="0.05rem" stroke-opacity="0.1"/><path d="M 109.71428571428572 0 A 2.0317460317460245 , 4.063492063492049 0 0 , 1 111.74603174603175 , 0" style="fill: none;" stroke="rgb(89, 142, 234)" stroke-width="0.05rem" stroke-opacity="0.1"/><path d="M 111.74603174603175 0 A 6.095238095238102 , -12.190476190476204 0 0 , 1 105.65079365079364 , 0" style="fill: none;" stroke="rgb(92, 139, 234)" stroke-width="0.05rem" stroke-opacity="0.1"/><path d="M 105.65079365079364 0 A 4.063492063492063 , -8.126984126984127 0 0 , 1 101.58730158730158 , 0" style="fill: none;" stroke="rgb(99, 133, 235)" stroke-width="0.05rem" stroke-opacity="0.1"/><path d="M 77.2063492063492 0 C 77.2063492063492 0 77.2063492063492 0 77.2063492063492 0" style="fill: none;" stroke="rgb(138, 99, 240)" stroke-width="0.05rem" stroke-opacity="0.1"/></g><path d="M3.296,0A3.296,3.296,0,1,1,-3.296,0A3.296,3.296,0,1,1,3.296,0" fill="none" class="symbol" transform="translate(180.66666666666666, 0)"/></g><g class="segment" id="The Humours of Bandon" transform="translate(0, 0) rotate(54)"><path fill="lightgray" class="donut" opacity="0" d="M138.072,-100.315A170.667,170.667,0,0,1,138.072,100.315L0,0Z"/><g class="x-axis" id="note-names-x-axis" fill="none" font-size="10" font-family="sans-serif" text-anchor="middle" opacity="0"><path class="domain" stroke="currentColor" d="M0,6V0H170.66666666666666V6"/></g><g id="links" class="links"><path d="M 81.26984126984127 0 C 81.26984126984127 0 81.26984126984127 0 81.26984126984127 0" style="fill: none;" stroke="rgb(132, 104, 239)" stroke-width="0.05rem" stroke-opacity="0.1"/><path d="M 81.26984126984127 0 A 10.158730158730151 , 20.317460317460302 0 0 , 1 91.42857142857142 , 0" style="fill: none;" stroke="rgb(125, 111, 238)" stroke-width="0.05rem" stroke-opacity="0.2285714285714286"/><path d="M 91.42857142857142 0 C 91.42857142857142 0 91.42857142857142 0 91.42857142857142 0" style="fill: none;" stroke="rgb(117, 117, 237)" stroke-width="0.05rem" stroke-opacity="1"/><path d="M 91.42857142857142 0 A 4.0634920634920775 , 8.126984126984155 0 0 , 1 95.4920634920635 , 0" style="fill: none;" stroke="rgb(114, 120, 237)" stroke-width="0.05rem" stroke-opacity="0.7428571428571429"/><path d="M 95.4920634920635 0 A 8.12698412698414 , -16.25396825396828 0 0 , 1 87.36507936507935 , 0" style="fill: none;" stroke="rgb(117, 117, 237)" stroke-width="0.05rem" stroke-opacity="0.2285714285714286"/><path d="M 87.36507936507935 0 A 4.063492063492063 , 8.126984126984127 0 0 , 1 91.42857142857142 , 0" style="fill: none;" stroke="rgb(120, 115, 238)" stroke-width="0.05rem" stroke-opacity="0.35714285714285715"/><path d="M 87.36507936507935 0 C 87.36507936507935 0 87.36507936507935 0 87.36507936507935 0" style="fill: none;" stroke="rgb(123, 112, 238)" stroke-width="0.05rem" stroke-opacity="0.1"/><path d="M 95.4920634920635 0 A 4.0634920634920775 , -8.126984126984155 0 0 , 1 91.42857142857142 , 0" style="fill: none;" stroke="rgb(114, 120, 237)" stroke-width="0.05rem" stroke-opacity="0.6142857142857142"/><path d="M 95.4920634920635 0 A 2.0317460317460245 , 4.063492063492049 0 0 , 1 97.52380952380952 , 0" style="fill: none;" stroke="rgb(110, 124, 236)" stroke-width="0.05rem" stroke-opacity="0.35714285714285715"/><path d="M 97.52380952380952 0 A 2.0317460317460245 , -4.063492063492049 0 0 , 1 95.4920634920635 , 0" style="fill: none;" stroke="rgb(110, 124, 236)" stroke-width="0.05rem" stroke-opacity="0.35714285714285715"/><path d="M 91.42857142857142 0 A 4.063492063492063 , -8.126984126984127 0 0 , 1 87.36507936507935 , 0" style="fill: none;" stroke="rgb(120, 115, 238)" stroke-width="0.05rem" stroke-opacity="0.35714285714285715"/><path d="M 87.36507936507935 0 A 28.444444444444457 , 56.888888888888914 0 0 , 1 115.80952380952381 , 0" style="fill: none;" stroke="rgb(102, 130, 235)" stroke-width="0.05rem" stroke-opacity="0.1"/><path d="M 115.80952380952381 0 A 4.063492063492063 , -8.126984126984127 0 0 , 1 111.74603174603175 , 0" style="fill: none;" stroke="rgb(84, 146, 233)" stroke-width="0.05rem" stroke-opacity="0.2285714285714286"/><path d="M 111.74603174603175 0 A 2.0317460317460245 , -4.063492063492049 0 0 , 1 109.71428571428572 , 0" style="fill: none;" stroke="rgb(89, 142, 234)" stroke-width="0.05rem" stroke-opacity="0.1"/><path d="M 109.71428571428572 0 A 2.0317460317460245 , 4.063492063492049 0 0 , 1 111.74603174603175 , 0" style="fill: none;" stroke="rgb(89, 142, 234)" stroke-width="0.05rem" stroke-opacity="0.2285714285714286"/><path d="M 111.74603174603175 0 A 6.095238095238102 , -12.190476190476204 0 0 , 1 105.65079365079364 , 0" style="fill: none;" stroke="rgb(92, 139, 234)" stroke-width="0.05rem" stroke-opacity="0.2285714285714286"/><path d="M 105.65079365079364 0 A 4.063492063492063 , -8.126984126984127 0 0 , 1 101.58730158730158 , 0" style="fill: none;" stroke="rgb(99, 133, 235)" stroke-width="0.05rem" stroke-opacity="0.4857142857142857"/><path d="M 101.58730158730158 0 A 4.063492063492063 , -8.126984126984127 0 0 , 1 97.52380952380952 , 0" style="fill: none;" stroke="rgb(105, 128, 236)" stroke-width="0.05rem" stroke-opacity="0.35714285714285715"/><path d="M 97.52380952380952 0 A 8.126984126984127 , 16.253968253968253 0 0 , 1 105.65079365079364 , 0" style="fill: none;" stroke="rgb(102, 130, 235)" stroke-width="0.05rem" stroke-opacity="0.1"/><path d="M 101.58730158730158 0 C 101.58730158730158 0 101.58730158730158 0 101.58730158730158 0" style="fill: none;" stroke="rgb(102, 130, 235)" stroke-width="0.05rem" stroke-opacity="0.2285714285714286"/><path d="M 101.58730158730158 0 A 4.063492063492063 , 8.126984126984127 0 0 , 1 105.65079365079364 , 0" style="fill: none;" stroke="rgb(99, 133, 235)" stroke-width="0.05rem" stroke-opacity="0.35714285714285715"/><path d="M 105.65079365079364 0 A 10.158730158730151 , -20.317460317460302 0 0 , 1 95.4920634920635 , 0" style="fill: none;" stroke="rgb(104, 129, 236)" stroke-width="0.05rem" stroke-opacity="0.1"/><path d="M 95.4920634920635 0 A 6.095238095238088 , 12.190476190476176 0 0 , 1 101.58730158730158 , 0" style="fill: none;" stroke="rgb(107, 126, 236)" stroke-width="0.05rem" stroke-opacity="0.1"/><path d="M 101.58730158730158 0 A 14.222222222222229 , -28.444444444444457 0 0 , 1 87.36507936507935 , 0" style="fill: none;" stroke="rgb(113, 121, 237)" stroke-width="0.05rem" stroke-opacity="0.1"/><path d="M 91.42857142857142 0 A 6.095238095238102 , 12.190476190476204 0 0 , 1 97.52380952380952 , 0" style="fill: none;" stroke="rgb(113, 121, 237)" stroke-width="0.05rem" stroke-opacity="0.1"/><path d="M 97.52380952380952 0 A 4.063492063492063 , 8.126984126984127 0 0 , 1 101.58730158730158 , 0" style="fill: none;" stroke="rgb(105, 128, 236)" stroke-width="0.05rem" stroke-opacity="0.35714285714285715"/><path d="M 87.36507936507935 0 A 6.095238095238088 , -12.190476190476176 0 0 , 1 81.26984126984127 , 0" style="fill: none;" stroke="rgb(128, 108, 239)" stroke-width="0.05rem" stroke-opacity="0.2285714285714286"/><path d="M 81.26984126984127 0 A 4.063492063492063 , -8.126984126984127 0 0 , 1 77.2063492063492 , 0" style="fill: none;" stroke="rgb(135, 102, 240)" stroke-width="0.05rem" stroke-opacity="0.1"/><path d="M 77.2063492063492 0 A 14.222222222222214 , 28.44444444444443 0 0 , 1 91.42857142857142 , 0" style="fill: none;" stroke="rgb(128, 108, 239)" stroke-width="0.05rem" stroke-opacity="0.1"/><path d="M 91.42857142857142 0 A 10.158730158730151 , -20.317460317460302 0 0 , 1 81.26984126984127 , 0" style="fill: none;" stroke="rgb(125, 111, 238)" stroke-width="0.05rem" stroke-opacity="0.1"/><path d="M 81.26984126984127 0 A 24.38095238095238 , 48.76190476190476 0 0 , 1 105.65079365079364 , 0" style="fill: none;" stroke="rgb(114, 120, 237)" stroke-width="0.05rem" stroke-opacity="0.1"/><path d="M 105.65079365079364 0 A 6.095238095238102 , 12.190476190476204 0 0 , 1 111.74603174603175 , 0" style="fill: none;" stroke="rgb(92, 139, 234)" stroke-width="0.05rem" stroke-opacity="0.1"/><path d="M 105.65079365079364 0 A 4.0634920634920775 , 8.126984126984155 0 0 , 1 109.71428571428572 , 0" style="fill: none;" stroke="rgb(93, 138, 234)" stroke-width="0.05rem" stroke-opacity="0.2285714285714286"/><path d="M 109.71428571428572 0 A 12.190476190476176 , 24.38095238095235 0 0 , 1 121.9047619047619 , 0" style="fill: none;" stroke="rgb(81, 149, 233)" stroke-width="0.05rem" stroke-opacity="0.1"/><path d="M 121.9047619047619 0 A 6.095238095238088 , -12.190476190476176 0 0 , 1 115.80952380952381 , 0" style="fill: none;" stroke="rgb(77, 153, 232)" stroke-width="0.05rem" stroke-opacity="0.1"/><path d="M 111.74603174603175 0 A 8.126984126984112 , 16.253968253968225 0 0 , 1 119.87301587301586 , 0" style="fill: none;" stroke="rgb(81, 149, 233)" stroke-width="0.05rem" stroke-opacity="0.1"/><path d="M 119.87301587301586 0 A 4.063492063492049 , -8.126984126984098 0 0 , 1 115.80952380952381 , 0" style="fill: none;" stroke="rgb(78, 151, 232)" stroke-width="0.05rem" stroke-opacity="0.2285714285714286"/><path d="M 115.80952380952381 0 A 6.095238095238088 , 12.190476190476176 0 0 , 1 121.9047619047619 , 0" style="fill: none;" stroke="rgb(77, 153, 232)" stroke-width="0.05rem" stroke-opacity="0.1"/><path d="M 121.9047619047619 0 A 2.0317460317460387 , -4.0634920634920775 0 0 , 1 119.87301587301586 , 0" style="fill: none;" stroke="rgb(74, 155, 232)" stroke-width="0.05rem" stroke-opacity="0.1"/><path d="M 119.87301587301586 0 C 119.87301587301586 0 119.87301587301586 0 119.87301587301586 0" style="fill: none;" stroke="rgb(75, 154, 232)" stroke-width="0.05rem" stroke-opacity="0.1"/><path d="M 115.80952380952381 0 A 10.158730158730165 , -20.31746031746033 0 0 , 1 105.65079365079364 , 0" style="fill: none;" stroke="rgb(89, 142, 234)" stroke-width="0.05rem" stroke-opacity="0.1"/><path d="M 111.74603174603175 0 A 4.063492063492063 , 8.126984126984127 0 0 , 1 115.80952380952381 , 0" style="fill: none;" stroke="rgb(84, 146, 233)" stroke-width="0.05rem" stroke-opacity="0.1"/><path d="M 115.80952380952381 0 A 4.063492063492049 , 8.126984126984098 0 0 , 1 119.87301587301586 , 0" style="fill: none;" stroke="rgb(78, 151, 232)" stroke-width="0.05rem" stroke-opacity="0.1"/><path d="M 119.87301587301586 0 A 8.126984126984112 , -16.253968253968225 0 0 , 1 111.74603174603175 , 0" style="fill: none;" stroke="rgb(81, 149, 233)" stroke-width="0.05rem" stroke-opacity="0.1"/><path d="M 111.74603174603175 0 C 111.74603174603175 0 111.74603174603175 0 111.74603174603175 0" style="fill: none;" stroke="rgb(87, 143, 233)" stroke-width="0.05rem" stroke-opacity="0.1"/><path d="M 111.74603174603175 0 A 10.158730158730165 , -20.31746031746033 0 0 , 1 101.58730158730158 , 0" style="fill: none;" stroke="rgb(95, 137, 234)" stroke-width="0.05rem" stroke-opacity="0.1"/><path d="M 101.58730158730158 0 A 8.12698412698414 , 16.25396825396828 0 0 , 1 109.71428571428572 , 0" style="fill: none;" stroke="rgb(96, 136, 235)" stroke-width="0.05rem" stroke-opacity="0.1"/><path d="M 109.71428571428572 0 A 4.0634920634920775 , -8.126984126984155 0 0 , 1 105.65079365079364 , 0" style="fill: none;" stroke="rgb(93, 138, 234)" stroke-width="0.05rem" stroke-opacity="0.1"/><path d="M 105.65079365079364 0 A 10.158730158730165 , 20.31746031746033 0 0 , 1 115.80952380952381 , 0" style="fill: none;" stroke="rgb(89, 142, 234)" stroke-width="0.05rem" stroke-opacity="0.1"/><path d="M 115.80952380952381 0 A 8.12698412698414 , -16.25396825396828 0 0 , 1 107.68253968253967 , 0" style="fill: none;" stroke="rgb(87, 143, 233)" stroke-width="0.05rem" stroke-opacity="0.1"/><path d="M 107.68253968253967 0 A 10.158730158730151 , -20.317460317460302 0 0 , 1 97.52380952380952 , 0" style="fill: none;" stroke="rgb(101, 132, 235)" stroke-width="0.05rem" stroke-opacity="0.1"/><path d="M 105.65079365079364 0 C 105.65079365079364 0 105.65079365079364 0 105.65079365079364 0" style="fill: none;" stroke="rgb(96, 136, 235)" stroke-width="0.05rem" stroke-opacity="0.1"/><path d="M 105.65079365079364 0 A 14.222222222222229 , -28.444444444444457 0 0 , 1 91.42857142857142 , 0" style="fill: none;" stroke="rgb(107, 126, 236)" stroke-width="0.05rem" stroke-opacity="0.1"/><path d="M 87.36507936507935 0 A 18.285714285714292 , 36.571428571428584 0 0 , 1 105.65079365079364 , 0" style="fill: none;" stroke="rgb(110, 124, 236)" stroke-width="0.05rem" stroke-opacity="0.1"/><path d="M 101.58730158730158 0 A 6.095238095238088 , -12.190476190476176 0 0 , 1 95.4920634920635 , 0" style="fill: none;" stroke="rgb(107, 126, 236)" stroke-width="0.05rem" stroke-opacity="0.1"/><path d="M 97.52380952380952 0 A 20.317460317460316 , -40.63492063492063 0 0 , 1 77.2063492063492 , 0" style="fill: none;" stroke="rgb(123, 112, 238)" stroke-width="0.05rem" stroke-opacity="0.1"/><path d="M 77.2063492063492 0 A 4.063492063492063 , 8.126984126984127 0 0 , 1 81.26984126984127 , 0" style="fill: none;" stroke="rgb(135, 102, 240)" stroke-width="0.05rem" stroke-opacity="0.1"/><path d="M 81.26984126984127 0 A 6.095238095238088 , 12.190476190476176 0 0 , 1 87.36507936507935 , 0" style="fill: none;" stroke="rgb(128, 108, 239)" stroke-width="0.05rem" stroke-opacity="0.1"/></g><path d="M3.296,0A3.296,3.296,0,1,1,-3.296,0A3.296,3.296,0,1,1,3.296,0" fill="none" class="symbol" transform="translate(180.66666666666666, 0)"/></g><g class="segment" id="The Rakes of Kildare" transform="translate(0, 0) rotate(126)"><path fill="lightgray" class="donut" opacity="0" d="M138.072,-100.315A170.667,170.667,0,0,1,138.072,100.315L0,0Z"/><g class="x-axis" id="note-names-x-axis" fill="none" font-size="10" font-family="sans-serif" text-anchor="middle" opacity="0"><path class="domain" stroke="currentColor" d="M0,6V0H170.66666666666666V6"/></g><g id="links" class="links"><path d="M 81.26984126984127 0 A 10.158730158730151 , 20.317460317460302 0 0 , 1 91.42857142857142 , 0" style="fill: none;" stroke="rgb(125, 111, 238)" stroke-width="0.05rem" stroke-opacity="0.21250000000000002"/><path d="M 91.42857142857142 0 C 91.42857142857142 0 91.42857142857142 0 91.42857142857142 0" style="fill: none;" stroke="rgb(117, 117, 237)" stroke-width="0.05rem" stroke-opacity="0.8875"/><path d="M 91.42857142857142 0 A 4.063492063492063 , -8.126984126984127 0 0 , 1 87.36507936507935 , 0" style="fill: none;" stroke="rgb(120, 115, 238)" stroke-width="0.05rem" stroke-opacity="0.325"/><path d="M 87.36507936507935 0 A 4.063492063492063 , 8.126984126984127 0 0 , 1 91.42857142857142 , 0" style="fill: none;" stroke="rgb(120, 115, 238)" stroke-width="0.05rem" stroke-opacity="0.4375"/><path d="M 91.42857142857142 0 A 4.0634920634920775 , 8.126984126984155 0 0 , 1 95.4920634920635 , 0" style="fill: none;" stroke="rgb(114, 120, 237)" stroke-width="0.05rem" stroke-opacity="0.21250000000000002"/><path d="M 95.4920634920635 0 A 4.0634920634920775 , -8.126984126984155 0 0 , 1 91.42857142857142 , 0" style="fill: none;" stroke="rgb(114, 120, 237)" stroke-width="0.05rem" stroke-opacity="0.55"/><path d="M 91.42857142857142 0 A 10.158730158730151 , -20.317460317460302 0 0 , 1 81.26984126984127 , 0" style="fill: none;" stroke="rgb(125, 111, 238)" stroke-width="0.05rem" stroke-opacity="0.21250000000000002"/><path d="M 81.26984126984127 0 A 24.38095238095238 , 48.76190476190476 0 0 , 1 105.65079365079364 , 0" style="fill: none;" stroke="rgb(114, 120, 237)" stroke-width="0.05rem" stroke-opacity="0.1"/><path d="M 105.65079365079364 0 A 4.063492063492063 , -8.126984126984127 0 0 , 1 101.58730158730158 , 0" style="fill: none;" stroke="rgb(99, 133, 235)" stroke-width="0.05rem" stroke-opacity="0.55"/><path d="M 101.58730158730158 0 A 4.063492063492063 , -8.126984126984127 0 0 , 1 97.52380952380952 , 0" style="fill: none;" stroke="rgb(105, 128, 236)" stroke-width="0.05rem" stroke-opacity="0.21250000000000002"/><path d="M 97.52380952380952 0 A 12.190476190476204 , 24.380952380952408 0 0 , 1 109.71428571428572 , 0" style="fill: none;" stroke="rgb(99, 133, 235)" stroke-width="0.05rem" stroke-opacity="0.21250000000000002"/><path d="M 109.71428571428572 0 A 14.222222222222229 , -28.444444444444457 0 0 , 1 95.4920634920635 , 0" style="fill: none;" stroke="rgb(101, 132, 235)" stroke-width="0.05rem" stroke-opacity="0.325"/><path d="M 95.4920634920635 0 A 10.158730158730151 , 20.317460317460302 0 0 , 1 105.65079365079364 , 0" style="fill: none;" stroke="rgb(104, 129, 236)" stroke-width="0.05rem" stroke-opacity="0.21250000000000002"/><path d="M 105.65079365079364 0 A 6.095238095238102 , 12.190476190476204 0 0 , 1 111.74603174603175 , 0" style="fill: none;" stroke="rgb(92, 139, 234)" stroke-width="0.05rem" stroke-opacity="0.325"/><path d="M 111.74603174603175 0 A 2.0317460317460245 , -4.063492063492049 0 0 , 1 109.71428571428572 , 0" style="fill: none;" stroke="rgb(89, 142, 234)" stroke-width="0.05rem" stroke-opacity="0.6625"/><path d="M 109.71428571428572 0 C 109.71428571428572 0 109.71428571428572 0 109.71428571428572 0" style="fill: none;" stroke="rgb(90, 141, 234)" stroke-width="0.05rem" stroke-opacity="0.1"/><path d="M 109.71428571428572 0 A 2.0317460317460245 , 4.063492063492049 0 0 , 1 111.74603174603175 , 0" style="fill: none;" stroke="rgb(89, 142, 234)" stroke-width="0.05rem" stroke-opacity="0.55"/><path d="M 111.74603174603175 0 A 6.095238095238102 , -12.190476190476204 0 0 , 1 105.65079365079364 , 0" style="fill: none;" stroke="rgb(92, 139, 234)" stroke-width="0.05rem" stroke-opacity="0.325"/><path d="M 111.74603174603175 0 A 30.47619047619048 , -60.95238095238096 0 0 , 1 81.26984126984127 , 0" style="fill: none;" stroke="rgb(110, 124, 236)" stroke-width="0.05rem" stroke-opacity="0.1"/><path d="M 81.26984126984127 0 A 6.095238095238088 , 12.190476190476176 0 0 , 1 87.36507936507935 , 0" style="fill: none;" stroke="rgb(128, 108, 239)" stroke-width="0.05rem" stroke-opacity="0.1"/><path d="M 87.36507936507935 0 A 14.222222222222229 , 28.444444444444457 0 0 , 1 101.58730158730158 , 0" style="fill: none;" stroke="rgb(113, 121, 237)" stroke-width="0.05rem" stroke-opacity="0.1"/><path d="M 101.58730158730158 0 A 6.095238095238088 , -12.190476190476176 0 0 , 1 95.4920634920635 , 0" style="fill: none;" stroke="rgb(107, 126, 236)" stroke-width="0.05rem" stroke-opacity="0.21250000000000002"/><path d="M 81.26984126984127 0 A 14.222222222222229 , 28.444444444444457 0 0 , 1 95.4920634920635 , 0" style="fill: none;" stroke="rgb(122, 113, 238)" stroke-width="0.05rem" stroke-opacity="0.1"/><path d="M 91.42857142857142 0 A 6.095238095238102 , 12.190476190476204 0 0 , 1 97.52380952380952 , 0" style="fill: none;" stroke="rgb(113, 121, 237)" stroke-width="0.05rem" stroke-opacity="0.1"/><path d="M 97.52380952380952 0 A 4.063492063492063 , 8.126984126984127 0 0 , 1 101.58730158730158 , 0" style="fill: none;" stroke="rgb(105, 128, 236)" stroke-width="0.05rem" stroke-opacity="0.1"/><path d="M 101.58730158730158 0 A 4.063492063492063 , 8.126984126984127 0 0 , 1 105.65079365079364 , 0" style="fill: none;" stroke="rgb(99, 133, 235)" stroke-width="0.05rem" stroke-opacity="0.21250000000000002"/><path d="M 105.65079365079364 0 A 4.0634920634920775 , 8.126984126984155 0 0 , 1 109.71428571428572 , 0" style="fill: none;" stroke="rgb(93, 138, 234)" stroke-width="0.05rem" stroke-opacity="0.21250000000000002"/><path d="M 95.4920634920635 0 A 16.253968253968253 , 32.507936507936506 0 0 , 1 111.74603174603175 , 0" style="fill: none;" stroke="rgb(99, 133, 235)" stroke-width="0.05rem" stroke-opacity="0.21250000000000002"/><path d="M 109.71428571428572 0 A 4.0634920634920775 , -8.126984126984155 0 0 , 1 105.65079365079364 , 0" style="fill: none;" stroke="rgb(93, 138, 234)" stroke-width="0.05rem" stroke-opacity="0.325"/><path d="M 105.65079365079364 0 A 10.158730158730151 , -20.317460317460302 0 0 , 1 95.4920634920635 , 0" style="fill: none;" stroke="rgb(104, 129, 236)" stroke-width="0.05rem" stroke-opacity="0.1"/><path d="M 95.4920634920635 0 A 6.095238095238088 , 12.190476190476176 0 0 , 1 101.58730158730158 , 0" style="fill: none;" stroke="rgb(107, 126, 236)" stroke-width="0.05rem" stroke-opacity="0.1"/><path d="M 101.58730158730158 0 A 14.222222222222229 , -28.444444444444457 0 0 , 1 87.36507936507935 , 0" style="fill: none;" stroke="rgb(113, 121, 237)" stroke-width="0.05rem" stroke-opacity="0.1"/><path d="M 91.42857142857142 0 A 24.380952380952394 , 48.76190476190479 0 0 , 1 115.80952380952381 , 0" style="fill: none;" stroke="rgb(99, 133, 235)" stroke-width="0.05rem" stroke-opacity="0.1"/><path d="M 115.80952380952381 0 C 115.80952380952381 0 115.80952380952381 0 115.80952380952381 0" style="fill: none;" stroke="rgb(81, 149, 233)" stroke-width="0.05rem" stroke-opacity="1"/><path d="M 115.80952380952381 0 A 10.158730158730165 , -20.31746031746033 0 0 , 1 105.65079365079364 , 0" style="fill: none;" stroke="rgb(89, 142, 234)" stroke-width="0.05rem" stroke-opacity="1"/><path d="M 105.65079365079364 0 A 10.158730158730165 , 20.31746031746033 0 0 , 1 115.80952380952381 , 0" style="fill: none;" stroke="rgb(89, 142, 234)" stroke-width="0.05rem" stroke-opacity="0.775"/><path d="M 115.80952380952381 0 A 4.063492063492049 , 8.126984126984098 0 0 , 1 119.87301587301586 , 0" style="fill: none;" stroke="rgb(78, 151, 232)" stroke-width="0.05rem" stroke-opacity="0.4375"/><path d="M 119.87301587301586 0 A 4.063492063492049 , -8.126984126984098 0 0 , 1 115.80952380952381 , 0" style="fill: none;" stroke="rgb(78, 151, 232)" stroke-width="0.05rem" stroke-opacity="0.6625"/><path d="M 111.74603174603175 0 C 111.74603174603175 0 111.74603174603175 0 111.74603174603175 0" style="fill: none;" stroke="rgb(87, 143, 233)" stroke-width="0.05rem" stroke-opacity="0.1"/><path d="M 101.58730158730158 0 A 14.222222222222229 , 28.444444444444457 0 0 , 1 115.80952380952381 , 0" style="fill: none;" stroke="rgb(92, 139, 234)" stroke-width="0.05rem" stroke-opacity="0.21250000000000002"/><path d="M 115.80952380952381 0 A 20.317460317460316 , -40.63492063492063 0 0 , 1 95.4920634920635 , 0" style="fill: none;" stroke="rgb(96, 136, 235)" stroke-width="0.05rem" stroke-opacity="0.21250000000000002"/><path d="M 87.36507936507935 0 A 28.444444444444457 , 56.888888888888914 0 0 , 1 115.80952380952381 , 0" style="fill: none;" stroke="rgb(102, 130, 235)" stroke-width="0.05rem" stroke-opacity="0.1"/><path d="M 95.4920634920635 0 A 8.12698412698414 , -16.25396825396828 0 0 , 1 87.36507936507935 , 0" style="fill: none;" stroke="rgb(117, 117, 237)" stroke-width="0.05rem" stroke-opacity="0.21250000000000002"/><path d="M 87.36507936507935 0 A 24.380952380952394 , 48.76190476190479 0 0 , 1 111.74603174603175 , 0" style="fill: none;" stroke="rgb(105, 128, 236)" stroke-width="0.05rem" stroke-opacity="0.1"/><path d="M 115.80952380952381 0 A 24.380952380952394 , -48.76190476190479 0 0 , 1 91.42857142857142 , 0" style="fill: none;" stroke="rgb(99, 133, 235)" stroke-width="0.05rem" stroke-opacity="0.1"/><path d="M 91.42857142857142 0 A 14.222222222222229 , 28.444444444444457 0 0 , 1 105.65079365079364 , 0" style="fill: none;" stroke="rgb(107, 126, 236)" stroke-width="0.05rem" stroke-opacity="0.1"/><path d="M 105.65079365079364 0 A 14.222222222222214 , 28.44444444444443 0 0 , 1 119.87301587301586 , 0" style="fill: none;" stroke="rgb(86, 145, 233)" stroke-width="0.05rem" stroke-opacity="0.21250000000000002"/><path d="M 115.80952380952381 0 A 4.063492063492063 , -8.126984126984127 0 0 , 1 111.74603174603175 , 0" style="fill: none;" stroke="rgb(84, 146, 233)" stroke-width="0.05rem" stroke-opacity="0.1"/><path d="M 111.74603174603175 0 A 24.380952380952394 , -48.76190476190479 0 0 , 1 87.36507936507935 , 0" style="fill: none;" stroke="rgb(105, 128, 236)" stroke-width="0.05rem" stroke-opacity="0.1"/><path d="M 87.36507936507935 0 A 6.095238095238088 , -12.190476190476176 0 0 , 1 81.26984126984127 , 0" style="fill: none;" stroke="rgb(128, 108, 239)" stroke-width="0.05rem" stroke-opacity="0.1"/><path d="M 81.26984126984127 0 C 81.26984126984127 0 81.26984126984127 0 81.26984126984127 0" style="fill: none;" stroke="rgb(132, 104, 239)" stroke-width="0.05rem" stroke-opacity="0.1"/><path d="M 91.42857142857142 0 A 18.285714285714306 , 36.57142857142861 0 0 , 1 109.71428571428572 , 0" style="fill: none;" stroke="rgb(104, 129, 236)" stroke-width="0.05rem" stroke-opacity="0.1"/><path d="M 111.74603174603175 0 A 10.158730158730165 , -20.31746031746033 0 0 , 1 101.58730158730158 , 0" style="fill: none;" stroke="rgb(95, 137, 234)" stroke-width="0.05rem" stroke-opacity="0.1"/><path d="M 105.65079365079364 0 A 18.285714285714292 , -36.571428571428584 0 0 , 1 87.36507936507935 , 0" style="fill: none;" stroke="rgb(110, 124, 236)" stroke-width="0.05rem" stroke-opacity="0.1"/><path d="M 87.36507936507935 0 A 8.12698412698414 , 16.25396825396828 0 0 , 1 95.4920634920635 , 0" style="fill: none;" stroke="rgb(117, 117, 237)" stroke-width="0.05rem" stroke-opacity="0.1"/></g><path d="M3.296,0A3.296,3.296,0,1,1,-3.296,0A3.296,3.296,0,1,1,3.296,0" fill="none" class="symbol" transform="translate(180.66666666666666, 0)"/></g><g class="segment" id="There was an old woman toss´d up in a blanket" transform="translate(0, 0) rotate(198.00000000000003)"><path fill="lightgray" class="donut" opacity="0" d="M138.072,-100.315A170.667,170.667,0,0,1,138.072,100.315L0,0Z"/><g class="x-axis" id="note-names-x-axis" fill="none" font-size="10" font-family="sans-serif" text-anchor="middle" opacity="0"><path class="domain" stroke="currentColor" d="M0,6V0H170.66666666666666V6"/></g><g id="links" class="links"><path d="M 81.26984126984127 0 A 10.158730158730151 , 20.317460317460302 0 0 , 1 91.42857142857142 , 0" style="fill: none;" stroke="rgb(125, 111, 238)" stroke-width="0.05rem" stroke-opacity="0.21250000000000002"/><path d="M 91.42857142857142 0 A 4.0634920634920775 , 8.126984126984155 0 0 , 1 95.4920634920635 , 0" style="fill: none;" stroke="rgb(114, 120, 237)" stroke-width="0.05rem" stroke-opacity="0.1"/><path d="M 95.4920634920635 0 A 4.063492063492063 , 8.126984126984127 0 0 , 1 99.55555555555556 , 0" style="fill: none;" stroke="rgb(108, 125, 236)" stroke-width="0.05rem" stroke-opacity="0.6625"/><path d="M 99.55555555555556 0 A 6.095238095238088 , 12.190476190476176 0 0 , 1 105.65079365079364 , 0" style="fill: none;" stroke="rgb(101, 132, 235)" stroke-width="0.05rem" stroke-opacity="0.6625"/><path d="M 105.65079365079364 0 A 10.158730158730151 , -20.317460317460302 0 0 , 1 95.4920634920635 , 0" style="fill: none;" stroke="rgb(104, 129, 236)" stroke-width="0.05rem" stroke-opacity="0.325"/><path d="M 99.55555555555556 0 C 99.55555555555556 0 99.55555555555556 0 99.55555555555556 0" style="fill: none;" stroke="rgb(105, 128, 236)" stroke-width="0.05rem" stroke-opacity="0.21250000000000002"/><path d="M 99.55555555555556 0 A 10.158730158730165 , 20.31746031746033 0 0 , 1 109.71428571428572 , 0" style="fill: none;" stroke="rgb(98, 134, 235)" stroke-width="0.05rem" stroke-opacity="0.1"/><path d="M 109.71428571428572 0 A 10.158730158730165 , -20.31746031746033 0 0 , 1 99.55555555555556 , 0" style="fill: none;" stroke="rgb(98, 134, 235)" stroke-width="0.05rem" stroke-opacity="0.21250000000000002"/><path d="M 95.4920634920635 0 A 4.0634920634920775 , -8.126984126984155 0 0 , 1 91.42857142857142 , 0" style="fill: none;" stroke="rgb(114, 120, 237)" stroke-width="0.05rem" stroke-opacity="0.8875"/><path d="M 91.42857142857142 0 C 91.42857142857142 0 91.42857142857142 0 91.42857142857142 0" style="fill: none;" stroke="rgb(117, 117, 237)" stroke-width="0.05rem" stroke-opacity="0.775"/><path d="M 91.42857142857142 0 A 8.12698412698414 , 16.25396825396828 0 0 , 1 99.55555555555556 , 0" style="fill: none;" stroke="rgb(111, 123, 237)" stroke-width="0.05rem" stroke-opacity="0.55"/><path d="M 99.55555555555556 0 A 4.063492063492063 , -8.126984126984127 0 0 , 1 95.4920634920635 , 0" style="fill: none;" stroke="rgb(108, 125, 236)" stroke-width="0.05rem" stroke-opacity="1"/><path d="M 95.4920634920635 0 C 95.4920634920635 0 95.4920634920635 0 95.4920634920635 0" style="fill: none;" stroke="rgb(111, 123, 237)" stroke-width="0.05rem" stroke-opacity="0.325"/><path d="M 91.42857142857142 0 A 10.158730158730151 , -20.317460317460302 0 0 , 1 81.26984126984127 , 0" style="fill: none;" stroke="rgb(125, 111, 238)" stroke-width="0.05rem" stroke-opacity="0.1"/><path d="M 105.65079365079364 0 A 4.0634920634920775 , 8.126984126984155 0 0 , 1 109.71428571428572 , 0" style="fill: none;" stroke="rgb(93, 138, 234)" stroke-width="0.05rem" stroke-opacity="0.55"/><path d="M 109.71428571428572 0 A 4.0634920634920775 , -8.126984126984155 0 0 , 1 105.65079365079364 , 0" style="fill: none;" stroke="rgb(93, 138, 234)" stroke-width="0.05rem" stroke-opacity="0.325"/><path d="M 105.65079365079364 0 A 6.095238095238088 , -12.190476190476176 0 0 , 1 99.55555555555556 , 0" style="fill: none;" stroke="rgb(101, 132, 235)" stroke-width="0.05rem" stroke-opacity="0.325"/><path d="M 91.42857142857142 0 A 14.222222222222229 , 28.444444444444457 0 0 , 1 105.65079365079364 , 0" style="fill: none;" stroke="rgb(107, 126, 236)" stroke-width="0.05rem" stroke-opacity="0.21250000000000002"/><path d="M 105.65079365079364 0 A 8.126984126984127 , 16.253968253968253 0 0 , 1 113.77777777777777 , 0" style="fill: none;" stroke="rgb(90, 141, 234)" stroke-width="0.05rem" stroke-opacity="0.21250000000000002"/><path d="M 113.77777777777777 0 A 4.063492063492049 , -8.126984126984098 0 0 , 1 109.71428571428572 , 0" style="fill: none;" stroke="rgb(87, 143, 233)" stroke-width="0.05rem" stroke-opacity="0.21250000000000002"/><path d="M 105.65079365079364 0 C 105.65079365079364 0 105.65079365079364 0 105.65079365079364 0" style="fill: none;" stroke="rgb(96, 136, 235)" stroke-width="0.05rem" stroke-opacity="0.325"/><path d="M 109.71428571428572 0 A 4.063492063492049 , 8.126984126984098 0 0 , 1 113.77777777777777 , 0" style="fill: none;" stroke="rgb(87, 143, 233)" stroke-width="0.05rem" stroke-opacity="0.21250000000000002"/><path d="M 113.77777777777777 0 A 2.0317460317460387 , 4.0634920634920775 0 0 , 1 115.80952380952381 , 0" style="fill: none;" stroke="rgb(83, 147, 233)" stroke-width="0.05rem" stroke-opacity="0.1"/><path d="M 115.80952380952381 0 C 115.80952380952381 0 115.80952380952381 0 115.80952380952381 0" style="fill: none;" stroke="rgb(81, 149, 233)" stroke-width="0.05rem" stroke-opacity="0.1"/><path d="M 115.80952380952381 0 A 10.158730158730165 , -20.31746031746033 0 0 , 1 105.65079365079364 , 0" style="fill: none;" stroke="rgb(89, 142, 234)" stroke-width="0.05rem" stroke-opacity="0.1"/><path d="M 109.71428571428572 0 A 6.095238095238088 , 12.190476190476176 0 0 , 1 115.80952380952381 , 0" style="fill: none;" stroke="rgb(86, 145, 233)" stroke-width="0.05rem" stroke-opacity="0.21250000000000002"/><path d="M 115.80952380952381 0 A 6.095238095238088 , -12.190476190476176 0 0 , 1 109.71428571428572 , 0" style="fill: none;" stroke="rgb(86, 145, 233)" stroke-width="0.05rem" stroke-opacity="0.21250000000000002"/><path d="M 109.71428571428572 0 C 109.71428571428572 0 109.71428571428572 0 109.71428571428572 0" style="fill: none;" stroke="rgb(90, 141, 234)" stroke-width="0.05rem" stroke-opacity="0.1"/><path d="M 113.77777777777777 0 A 36.57142857142857 , -73.14285714285714 0 0 , 1 77.2063492063492 , 0" style="fill: none;" stroke="rgb(111, 123, 237)" stroke-width="0.05rem" stroke-opacity="0.1"/><path d="M 77.2063492063492 0 A 28.444444444444443 , 56.888888888888886 0 0 , 1 105.65079365079364 , 0" style="fill: none;" stroke="rgb(117, 117, 237)" stroke-width="0.05rem" stroke-opacity="0.1"/><path d="M 109.71428571428572 0 A 14.222222222222229 , -28.444444444444457 0 0 , 1 95.4920634920635 , 0" style="fill: none;" stroke="rgb(101, 132, 235)" stroke-width="0.05rem" stroke-opacity="0.1"/><path d="M 99.55555555555556 0 A 8.12698412698414 , -16.25396825396828 0 0 , 1 91.42857142857142 , 0" style="fill: none;" stroke="rgb(111, 123, 237)" stroke-width="0.05rem" stroke-opacity="0.1"/><path d="M 91.42857142857142 0 A 24.38095238095238 , -48.76190476190476 0 0 , 1 67.04761904761904 , 0" style="fill: none;" stroke="rgb(135, 102, 240)" stroke-width="0.05rem" stroke-opacity="0.1"/><path d="M 67.04761904761904 0 A 8.126984126984127 , 16.253968253968253 0 0 , 1 75.17460317460316 , 0" style="fill: none;" stroke="rgb(147, 91, 241)" stroke-width="0.05rem" stroke-opacity="0.1"/><path d="M 75.17460317460316 0 A 8.126984126984127 , -16.253968253968253 0 0 , 1 67.04761904761904 , 0" style="fill: none;" stroke="rgb(147, 91, 241)" stroke-width="0.05rem" stroke-opacity="0.1"/><path d="M 67.04761904761904 0 A 14.222222222222229 , 28.444444444444457 0 0 , 1 81.26984126984127 , 0" style="fill: none;" stroke="rgb(143, 95, 241)" stroke-width="0.05rem" stroke-opacity="0.1"/><path d="M 81.26984126984127 0 A 4.063492063492063 , -8.126984126984127 0 0 , 1 77.2063492063492 , 0" style="fill: none;" stroke="rgb(135, 102, 240)" stroke-width="0.05rem" stroke-opacity="0.1"/><path d="M 77.2063492063492 0 A 2.0317460317460387 , -4.0634920634920775 0 0 , 1 75.17460317460316 , 0" style="fill: none;" stroke="rgb(140, 98, 240)" stroke-width="0.05rem" stroke-opacity="0.1"/><path d="M 75.17460317460316 0 A 24.380952380952394 , 48.76190476190479 0 0 , 1 99.55555555555556 , 0" style="fill: none;" stroke="rgb(123, 112, 238)" stroke-width="0.05rem" stroke-opacity="0.1"/></g><path d="M3.296,0A3.296,3.296,0,1,1,-3.296,0A3.296,3.296,0,1,1,3.296,0" fill="none" class="symbol" transform="translate(180.66666666666666, 0)"/></g></g></svg>