<svg width="106" height="38" viewBox="0 0 106 38" fill="none" xmlns="http://www.w3.org/2000/svg">
<path d="M26.0753 32.5092C21.7817 32.5092 19.5899 29.6775 19.5899 25.3094C19.5899 21.4198 21.358 18.4873 25.0871 17.1118C27.3511 16.2767 29.4731 16.071 32.5237 16.071H33.7876V10.9044H10.634V16.0109H19.3738C15.2903 17.9858 13.3032 22.0551 13.3032 26.3071C13.3032 33.8965 17.913 38 25.8205 38C28.5768 38 31.2413 37.38 33.9684 36.288L32.2921 31.1903C30.1433 32.1438 28.2802 32.5098 26.0759 32.5098L26.0753 32.5092ZM67.3358 10.4506C63.5191 10.4506 61.0736 11.5243 59.0739 14.402C57.9389 11.6829 55.7919 10.45 51.9996 10.45C48.7592 10.45 46.1873 11.6746 44.4687 13.663C44.3123 12.6223 44.082 11.6039 43.8093 10.5926L38.1008 11.3352C38.7017 14.4145 39.0026 17.5436 38.9995 20.6796L39.0592 37.5486H44.8106V23.615C44.8106 18.3918 46.6975 15.8223 50.2022 15.8223C54.0959 15.8223 55.1146 18.5975 55.1146 23.615V37.5486H60.866V23.615C60.866 18.2745 62.8728 15.8223 66.3172 15.8223C70.0916 15.8223 70.8704 18.3016 70.8704 23.615V37.5486H76.6212V21.7262C76.6212 14.5305 73.9615 10.4506 67.3358 10.4506ZM0.778749 37.5486H6.77005V10.5685L0.778749 11.3364V37.5486ZM3.7744 0C1.85706 0 0 1.47627 0 3.7782C0 5.90391 1.67744 7.49805 3.7744 7.49805C5.93103 7.49805 7.5488 5.90391 7.5488 3.7782C7.5488 1.65307 5.93103 0 3.7744 0ZM95.8148 10.5708L89.6146 11.3629L79.3704 37.5486H85.4804L87.2456 32.8163C90.838 36.3381 94.5097 37.6765 100.927 37.6765C102.366 37.6765 104.271 37.4195 106 37.0306L95.8148 10.5708ZM89.0633 27.9614L92.7893 17.9693L98.3557 32.5481C94.6583 32.3088 91.3303 30.6917 89.0633 27.9614Z" fill="black"/>
</svg>
