<svg width="38" height="38" viewBox="0 0 38 38" fill="none" xmlns="http://www.w3.org/2000/svg">
<path fill-rule="evenodd" clip-rule="evenodd" d="M19.008 7.68676e-05L18.9902 5.47908e-05C16.1744 0.008729 13.3955 0.63996 10.8536 1.84831C8.31164 3.05666 6.06992 4.81208 4.28971 6.98822C2.50954 9.16434 1.23519 11.7071 0.5584 14.4334C-0.118392 17.1596 -0.180793 20.0017 0.375687 22.7549C0.932169 25.5081 2.09369 28.1041 3.77665 30.3558C5.45962 32.6076 7.62213 34.4591 10.1086 35.7774C12.595 37.0956 15.3436 37.8474 18.1563 37.9791C20.9691 38.1108 23.7761 37.6187 26.3754 36.5387C27.4205 36.1045 27.9146 34.9073 27.4792 33.8651C27.0438 32.8227 25.8437 32.3299 24.7987 32.7641C22.7589 33.6119 20.5559 33.9981 18.3485 33.8948C16.141 33.7915 13.984 33.2014 12.0326 32.1669C10.0813 31.1324 8.38414 29.6792 7.06335 27.9119C5.74256 26.1448 4.83101 24.1075 4.3943 21.9468C3.95758 19.7861 4.00655 17.5557 4.53768 15.4161C5.06883 13.2766 6.06893 11.281 7.466 9.5732C8.86309 7.8654 10.6224 6.48777 12.6173 5.53944C14.6095 4.5924 16.7872 4.09709 18.994 4.08897C21.6263 4.10519 24.2092 4.8036 26.4892 6.11581C28.7719 7.4295 30.6724 9.31309 32.0042 11.5814L32.0195 11.6073C35.2958 17.0043 33.6882 21.1874 31.7604 23.0532C30.6935 24.0858 29.82 24.19 29.5533 24.1284C29.4855 24.1128 29.415 24.0879 29.3207 23.9346C29.2004 23.7392 29.0228 23.2824 29.0228 22.3912V19.0001V18.9822C29.0206 17.6782 28.7593 16.3876 28.254 15.1848C27.7465 13.9765 27.0029 12.881 26.0664 11.9623C25.13 11.0436 24.0196 10.3201 22.7999 9.83383C21.5802 9.34758 20.2757 9.1084 18.9623 9.13024C17.0125 9.16268 15.1158 9.76898 13.5103 10.873C11.9048 11.9771 10.6622 13.5297 9.93846 15.3358C9.21472 17.142 9.04213 19.1211 9.44237 21.0248C9.84262 22.9284 10.7978 24.6717 12.1881 26.0357C13.5784 27.3995 15.3417 28.3236 17.2566 28.691C19.1715 29.0588 21.1527 28.854 22.9513 28.1025C24.0471 27.6445 25.0454 26.9959 25.9025 26.1928C26.5601 27.1964 27.5169 27.8555 28.629 28.112C30.8099 28.6152 33.0438 27.5082 34.615 25.9877C37.9615 22.7493 39.7538 16.4647 35.5341 9.5023C33.8432 6.62742 31.4325 4.23999 28.538 2.57416C25.6391 0.905831 22.3548 0.0187269 19.008 7.68676e-05ZM19.0307 13.2186C19.7999 13.2058 20.564 13.3459 21.2784 13.6307C21.9928 13.9155 22.6432 14.3393 23.1917 14.8774C23.7402 15.4155 24.1758 16.0572 24.4731 16.7649C24.7704 17.4727 24.9235 18.2324 24.9234 18.9998C24.9232 20.1391 24.5856 21.2529 23.9529 22.2014C23.3202 23.1499 22.4206 23.8908 21.3671 24.3311C20.3136 24.7713 19.1532 24.8913 18.0316 24.676C16.9099 24.4606 15.8771 23.9195 15.0628 23.1206C14.2485 22.3216 13.689 21.3006 13.4546 20.1855C13.2201 19.0705 13.3212 17.9113 13.7451 16.8534C14.169 15.7955 14.8969 14.8861 15.8373 14.2394C16.7776 13.5927 17.8886 13.2376 19.0307 13.2186Z" fill="black"/>
</svg>
