<svg width="91" height="96" viewBox="0 0 91 96" fill="none" xmlns="http://www.w3.org/2000/svg">
<circle cx="22.5" cy="26.5" r="7.5" fill="#4D4D4D"/>
<circle cx="22.5" cy="67.5" r="7.15" stroke="#4D4D4D" stroke-width="0.7"/>
<circle cx="22.5" cy="46.5" r="7.15" stroke="#4D4D4D" stroke-width="0.7"/>
<circle cx="22.5" cy="87.5" r="7.15" stroke="#4D4D4D" stroke-width="0.7"/>
<circle cx="42.5" cy="26.5" r="7.15" stroke="#4D4D4D" stroke-width="0.7"/>
<circle cx="42.5" cy="67.5" r="7.15" stroke="#4D4D4D" stroke-width="0.7"/>
<circle cx="42.5" cy="46.5" r="7.5" fill="#4D4D4D"/>
<circle cx="42.5" cy="87.5" r="7.15" stroke="#4D4D4D" stroke-width="0.7"/>
<circle cx="63.5" cy="26.5" r="7.15" stroke="#4D4D4D" stroke-width="0.7"/>
<circle cx="63.5" cy="67.5" r="7.5" fill="#4D4D4D"/>
<circle cx="63.5" cy="46.5" r="7.15" stroke="#4D4D4D" stroke-width="0.7"/>
<circle cx="63.5" cy="87.5" r="7.15" stroke="#4D4D4D" stroke-width="0.7"/>
<circle cx="83.5" cy="26.5" r="7.5" fill="#4D4D4D"/>
<circle cx="83.5" cy="67.5" r="7.15" stroke="#4D4D4D" stroke-width="0.7"/>
<circle cx="83.5" cy="46.5" r="7.15" stroke="#4D4D4D" stroke-width="0.7"/>
<circle cx="83.5" cy="87.5" r="7.5" fill="#4D4D4D"/>
<path d="M23.09 14V12.334L23.062 12.082V9.338C23.062 8.65667 22.8753 8.13867 22.502 7.784C22.138 7.42933 21.6013 7.252 20.892 7.252C20.388 7.252 19.9167 7.34067 19.478 7.518C19.0487 7.686 18.68 7.90533 18.372 8.176L18.022 7.672C18.386 7.34533 18.8247 7.09333 19.338 6.916C19.8513 6.72933 20.388 6.636 20.948 6.636C21.8533 6.636 22.5487 6.86467 23.034 7.322C23.5193 7.77933 23.762 8.46067 23.762 9.366V14H23.09ZM20.458 14.056C19.9167 14.056 19.4453 13.972 19.044 13.804C18.652 13.6267 18.3487 13.3793 18.134 13.062C17.9287 12.7447 17.826 12.3807 17.826 11.97C17.826 11.5967 17.91 11.2607 18.078 10.962C18.2553 10.654 18.5447 10.4067 18.946 10.22C19.3473 10.024 19.884 9.926 20.556 9.926H23.244V10.472H20.57C19.814 10.472 19.282 10.612 18.974 10.892C18.6753 11.172 18.526 11.522 18.526 11.942C18.526 12.4087 18.7033 12.782 19.058 13.062C19.4127 13.342 19.912 13.482 20.556 13.482C21.172 13.482 21.69 13.342 22.11 13.062C22.5393 12.782 22.8567 12.376 23.062 11.844L23.258 12.32C23.062 12.852 22.726 13.2767 22.25 13.594C21.7833 13.902 21.186 14.056 20.458 14.056Z" fill="black"/>
<path d="M6.09 32V30.334L6.062 30.082V27.338C6.062 26.6567 5.87533 26.1387 5.502 25.784C5.138 25.4293 4.60133 25.252 3.892 25.252C3.388 25.252 2.91667 25.3407 2.478 25.518C2.04867 25.686 1.68 25.9053 1.372 26.176L1.022 25.672C1.386 25.3453 1.82467 25.0933 2.338 24.916C2.85133 24.7293 3.388 24.636 3.948 24.636C4.85333 24.636 5.54867 24.8647 6.034 25.322C6.51933 25.7793 6.762 26.4607 6.762 27.366V32H6.09ZM3.458 32.056C2.91667 32.056 2.44533 31.972 2.044 31.804C1.652 31.6267 1.34867 31.3793 1.134 31.062C0.928667 30.7447 0.826 30.3807 0.826 29.97C0.826 29.5967 0.91 29.2607 1.078 28.962C1.25533 28.654 1.54467 28.4067 1.946 28.22C2.34733 28.024 2.884 27.926 3.556 27.926H6.244V28.472H3.57C2.814 28.472 2.282 28.612 1.974 28.892C1.67533 29.172 1.526 29.522 1.526 29.942C1.526 30.4087 1.70333 30.782 2.058 31.062C2.41267 31.342 2.912 31.482 3.556 31.482C4.172 31.482 4.69 31.342 5.11 31.062C5.53933 30.782 5.85667 30.376 6.062 29.844L6.258 30.32C6.062 30.852 5.726 31.2767 5.25 31.594C4.78333 31.902 4.186 32.056 3.458 32.056Z" fill="black"/>
<path d="M5.152 52.056C4.508 52.056 3.92467 51.9067 3.402 51.608C2.88867 51.3093 2.478 50.88 2.17 50.32C1.87133 49.76 1.722 49.102 1.722 48.346C1.722 47.5713 1.87133 46.9087 2.17 46.358C2.478 45.8073 2.88867 45.3827 3.402 45.084C3.92467 44.7853 4.508 44.636 5.152 44.636C5.84267 44.636 6.45867 44.7947 7 45.112C7.55067 45.42 7.98 45.854 8.288 46.414C8.60533 46.9647 8.764 47.6087 8.764 48.346C8.764 49.074 8.60533 49.718 8.288 50.278C7.98 50.838 7.55067 51.2767 7 51.594C6.45867 51.902 5.84267 52.056 5.152 52.056ZM1.484 52V41.612H2.184V47.058L2.044 48.332L2.156 49.606V52H1.484ZM5.11 51.426C5.67 51.426 6.174 51.3 6.622 51.048C7.07 50.7867 7.42 50.4227 7.672 49.956C7.93333 49.4893 8.064 48.9527 8.064 48.346C8.064 47.73 7.93333 47.1933 7.672 46.736C7.42 46.2693 7.07 45.91 6.622 45.658C6.174 45.3967 5.67 45.266 5.11 45.266C4.55 45.266 4.046 45.3967 3.598 45.658C3.15933 45.91 2.80933 46.2693 2.548 46.736C2.296 47.1933 2.17 47.73 2.17 48.346C2.17 48.9527 2.296 49.4893 2.548 49.956C2.80933 50.4227 3.15933 50.7867 3.598 51.048C4.046 51.3 4.55 51.426 5.11 51.426Z" fill="black"/>
<path d="M4.382 73.056C3.67267 73.056 3.038 72.8973 2.478 72.58C1.92733 72.2627 1.48867 71.824 1.162 71.264C0.844667 70.704 0.686 70.0647 0.686 69.346C0.686 68.618 0.844667 67.974 1.162 67.414C1.48867 66.854 1.92733 66.42 2.478 66.112C3.038 65.7947 3.67267 65.636 4.382 65.636C4.97 65.636 5.502 65.748 5.978 65.972C6.46333 66.196 6.85533 66.532 7.154 66.98L6.636 67.358C6.37467 66.9847 6.048 66.7093 5.656 66.532C5.264 66.3547 4.83933 66.266 4.382 66.266C3.81267 66.266 3.29933 66.3967 2.842 66.658C2.394 66.91 2.03933 67.2693 1.778 67.736C1.526 68.1933 1.4 68.73 1.4 69.346C1.4 69.962 1.526 70.5033 1.778 70.97C2.03933 71.4273 2.394 71.7867 2.842 72.048C3.29933 72.3 3.81267 72.426 4.382 72.426C4.83933 72.426 5.264 72.3373 5.656 72.16C6.048 71.9827 6.37467 71.7073 6.636 71.334L7.154 71.712C6.85533 72.16 6.46333 72.496 5.978 72.72C5.502 72.944 4.97 73.056 4.382 73.056Z" fill="black"/>
<path d="M6.09 93V91.334L6.062 91.082V88.338C6.062 87.6567 5.87533 87.1387 5.502 86.784C5.138 86.4293 4.60133 86.252 3.892 86.252C3.388 86.252 2.91667 86.3407 2.478 86.518C2.04867 86.686 1.68 86.9053 1.372 87.176L1.022 86.672C1.386 86.3453 1.82467 86.0933 2.338 85.916C2.85133 85.7293 3.388 85.636 3.948 85.636C4.85333 85.636 5.54867 85.8647 6.034 86.322C6.51933 86.7793 6.762 87.4607 6.762 88.366V93H6.09ZM3.458 93.056C2.91667 93.056 2.44533 92.972 2.044 92.804C1.652 92.6267 1.34867 92.3793 1.134 92.062C0.928667 91.7447 0.826 91.3807 0.826 90.97C0.826 90.5967 0.91 90.2607 1.078 89.962C1.25533 89.654 1.54467 89.4067 1.946 89.22C2.34733 89.024 2.884 88.926 3.556 88.926H6.244V89.472H3.57C2.814 89.472 2.282 89.612 1.974 89.892C1.67533 90.172 1.526 90.522 1.526 90.942C1.526 91.4087 1.70333 91.782 2.058 92.062C2.41267 92.342 2.912 92.482 3.556 92.482C4.172 92.482 4.69 92.342 5.11 92.062C5.53933 91.782 5.85667 91.376 6.062 90.844L6.258 91.32C6.062 91.852 5.726 92.2767 5.25 92.594C4.78333 92.902 4.186 93.056 3.458 93.056Z" fill="black"/>
<path d="M42.152 14.056C41.508 14.056 40.9247 13.9067 40.402 13.608C39.8887 13.3093 39.478 12.88 39.17 12.32C38.8713 11.76 38.722 11.102 38.722 10.346C38.722 9.57133 38.8713 8.90867 39.17 8.358C39.478 7.80733 39.8887 7.38267 40.402 7.084C40.9247 6.78533 41.508 6.636 42.152 6.636C42.8427 6.636 43.4587 6.79467 44 7.112C44.5507 7.42 44.98 7.854 45.288 8.414C45.6053 8.96467 45.764 9.60867 45.764 10.346C45.764 11.074 45.6053 11.718 45.288 12.278C44.98 12.838 44.5507 13.2767 44 13.594C43.4587 13.902 42.8427 14.056 42.152 14.056ZM38.484 14V3.612H39.184V9.058L39.044 10.332L39.156 11.606V14H38.484ZM42.11 13.426C42.67 13.426 43.174 13.3 43.622 13.048C44.07 12.7867 44.42 12.4227 44.672 11.956C44.9333 11.4893 45.064 10.9527 45.064 10.346C45.064 9.73 44.9333 9.19333 44.672 8.736C44.42 8.26933 44.07 7.91 43.622 7.658C43.174 7.39667 42.67 7.266 42.11 7.266C41.55 7.266 41.046 7.39667 40.598 7.658C40.1593 7.91 39.8093 8.26933 39.548 8.736C39.296 9.19333 39.17 9.73 39.17 10.346C39.17 10.9527 39.296 11.4893 39.548 11.956C39.8093 12.4227 40.1593 12.7867 40.598 13.048C41.046 13.3 41.55 13.426 42.11 13.426Z" fill="black"/>
<path d="M62.382 14.056C61.6727 14.056 61.038 13.8973 60.478 13.58C59.9273 13.2627 59.4887 12.824 59.162 12.264C58.8447 11.704 58.686 11.0647 58.686 10.346C58.686 9.618 58.8447 8.974 59.162 8.414C59.4887 7.854 59.9273 7.42 60.478 7.112C61.038 6.79467 61.6727 6.636 62.382 6.636C62.97 6.636 63.502 6.748 63.978 6.972C64.4633 7.196 64.8553 7.532 65.154 7.98L64.636 8.358C64.3747 7.98467 64.048 7.70933 63.656 7.532C63.264 7.35467 62.8393 7.266 62.382 7.266C61.8127 7.266 61.2993 7.39667 60.842 7.658C60.394 7.91 60.0393 8.26933 59.778 8.736C59.526 9.19333 59.4 9.73 59.4 10.346C59.4 10.962 59.526 11.5033 59.778 11.97C60.0393 12.4273 60.394 12.7867 60.842 13.048C61.2993 13.3 61.8127 13.426 62.382 13.426C62.8393 13.426 63.264 13.3373 63.656 13.16C64.048 12.9827 64.3747 12.7073 64.636 12.334L65.154 12.712C64.8553 13.16 64.4633 13.496 63.978 13.72C63.502 13.944 62.97 14.056 62.382 14.056Z" fill="black"/>
<path d="M84.09 14V12.334L84.062 12.082V9.338C84.062 8.65667 83.8753 8.13867 83.502 7.784C83.138 7.42933 82.6013 7.252 81.892 7.252C81.388 7.252 80.9167 7.34067 80.478 7.518C80.0487 7.686 79.68 7.90533 79.372 8.176L79.022 7.672C79.386 7.34533 79.8247 7.09333 80.338 6.916C80.8513 6.72933 81.388 6.636 81.948 6.636C82.8533 6.636 83.5487 6.86467 84.034 7.322C84.5193 7.77933 84.762 8.46067 84.762 9.366V14H84.09ZM81.458 14.056C80.9167 14.056 80.4453 13.972 80.044 13.804C79.652 13.6267 79.3487 13.3793 79.134 13.062C78.9287 12.7447 78.826 12.3807 78.826 11.97C78.826 11.5967 78.91 11.2607 79.078 10.962C79.2553 10.654 79.5447 10.4067 79.946 10.22C80.3473 10.024 80.884 9.926 81.556 9.926H84.244V10.472H81.57C80.814 10.472 80.282 10.612 79.974 10.892C79.6753 11.172 79.526 11.522 79.526 11.942C79.526 12.4087 79.7033 12.782 80.058 13.062C80.4127 13.342 80.912 13.482 81.556 13.482C82.172 13.482 82.69 13.342 83.11 13.062C83.5393 12.782 83.8567 12.376 84.062 11.844L84.258 12.32C84.062 12.852 83.726 13.2767 83.25 13.594C82.7833 13.902 82.186 14.056 81.458 14.056Z" fill="black"/>
</svg>
