<svg width="83" height="28" viewBox="0 0 83 28" fill="none" xmlns="http://www.w3.org/2000/svg">
<path d="M5 17.5C5 18.3284 4.32843 19 3.5 19C2.67157 19 2 18.3284 2 17.5C2 16.6716 2.67157 16 3.5 16C4.32843 16 5 16.6716 5 17.5Z" fill="#800080"/>
<path d="M36.5 3.5C36.5 4.32843 35.8284 5 35 5C34.1716 5 33.5 4.32843 33.5 3.5C33.5 2.67157 34.1716 2 35 2C35.8284 2 36.5 2.67157 36.5 3.5Z" fill="#800080"/>
<path d="M51.5 16.5C51.5 17.3284 50.8284 18 50 18C49.1716 18 48.5 17.3284 48.5 16.5C48.5 15.6716 49.1716 15 50 15C50.8284 15 51.5 15.6716 51.5 16.5Z" fill="#800080"/>
<path d="M66.5 12.5C66.5 13.3284 65.8284 14 65 14C64.1716 14 63.5 13.3284 63.5 12.5C63.5 11.6716 64.1716 11 65 11C65.8284 11 66.5 11.6716 66.5 12.5Z" fill="#800080"/>
<path d="M81 24.5C81 25.3284 80.3284 26 79.5 26C78.6716 26 78 25.3284 78 24.5C78 23.6716 78.6716 23 79.5 23C80.3284 23 81 23.6716 81 24.5Z" fill="#800080"/>
<path d="M4 17C5.2 16.6 25.1667 7.5 35 3L50 17L65 12L79.5 24.5M5 17.5C5 18.3284 4.32843 19 3.5 19C2.67157 19 2 18.3284 2 17.5C2 16.6716 2.67157 16 3.5 16C4.32843 16 5 16.6716 5 17.5ZM36.5 3.5C36.5 4.32843 35.8284 5 35 5C34.1716 5 33.5 4.32843 33.5 3.5C33.5 2.67157 34.1716 2 35 2C35.8284 2 36.5 2.67157 36.5 3.5ZM51.5 16.5C51.5 17.3284 50.8284 18 50 18C49.1716 18 48.5 17.3284 48.5 16.5C48.5 15.6716 49.1716 15 50 15C50.8284 15 51.5 15.6716 51.5 16.5ZM66.5 12.5C66.5 13.3284 65.8284 14 65 14C64.1716 14 63.5 13.3284 63.5 12.5C63.5 11.6716 64.1716 11 65 11C65.8284 11 66.5 11.6716 66.5 12.5ZM81 24.5C81 25.3284 80.3284 26 79.5 26C78.6716 26 78 25.3284 78 24.5C78 23.6716 78.6716 23 79.5 23C80.3284 23 81 23.6716 81 24.5Z" stroke="#800080" stroke-width="2.5"/>
</svg>
